<?xml version="1.0" encoding="utf-8"?>
<!-- Svg Vector Icons : http://www.onlinewebfonts.com/icon -->
<!DOCTYPE svg PUBLIC "-//W3C//DTD SVG 1.1//EN" "http://www.w3.org/Graphics/SVG/1.1/DTD/svg11.dtd">
<svg version="1.1" xmlns="http://www.w3.org/2000/svg" xmlns:xlink="http://www.w3.org/1999/xlink" x="0px" y="0px" viewBox="0 0 256 256" enable-background="new 0 0 256 256" xml:space="preserve">
<metadata> Svg Vector Icons : http://www.onlinewebfonts.com/icon </metadata>
<g><g><g><path fill="#000000" d="M176,8c-1,1.5-3.2,5.1-4.8,7.9l-3.1,5.1l-4.1-3c-2.2-1.6-5.6-4.1-7.4-5.6c-1.9-1.4-3.7-2.5-4-2.4c-0.6,0.2-1.4,3.5-2.7,12.6l-0.9,6.1l-8-2c-8.4-2.1-10.2-2.4-10.7-1.6c-0.2,0.3,0.7,4.4,1.9,9.1c1.2,4.7,2,8.7,1.9,8.9c-0.2,0.2-4.3,0.9-9.2,1.6c-6.9,1-8.8,1.5-9,2.2c-0.1,0.4,2.3,4.1,5.2,8.1c3,4,5.3,7.3,5.2,7.4c-0.1,0.1-0.8,0.5-1.5,1c-1.3,0.8-1.1,0.9,4.6,0.9c3.2,0,6.2,0.1,6.6,0.3c0.6,0.2,1-0.5,1.4-2.7c0.4-1.6,1.9-5.2,3.3-8c4.3-8.5,10.5-14.8,18.7-18.9c7.2-3.5,10.3-4.2,19.3-4.2c7.3,0.1,7.9,0.2,12.7,1.7c2.8,1,6.7,2.8,8.7,3.9c4.8,2.8,11.6,9.7,14.4,14.4c7.1,12,7.9,27.3,2,39.6c-1,2.1-2.3,4.4-2.8,5.2l-1,1.4l5.3,5.5c2.9,3,5.3,5.5,5.4,5.3c0.1-0.1-0.2-1.4-0.6-3.1c-0.5-1.6-0.6-3-0.5-3c1.9,0,17.8-2.7,18.3-3.1c0.6-0.6,0.6-0.6-5.5-8.8c-2.8-3.7-5-6.9-4.9-7c0.1-0.2,3.5-2.3,7.7-4.9c4.1-2.5,7.6-4.9,7.7-5.4c0.1-0.6-2.2-2.2-7.6-5.5c-4.2-2.5-7.7-4.8-7.7-5.1c0-0.3,2.4-3.8,5.3-7.7c4.5-6,5.2-7.3,4.7-7.9c-0.4-0.4-4.4-1.2-8.9-1.9c-4.5-0.6-8.5-1.2-8.8-1.3c-0.4-0.2,0.1-2.7,1.5-8.3c2.4-9.6,2.5-10.5,0.9-10.5c-0.7,0-4.9,1-9.3,2.1c-5.6,1.4-8.2,1.9-8.3,1.5c-0.1-0.4-0.7-4.3-1.3-8.8c-0.6-4.5-1.5-8.5-1.9-8.9c-0.5-0.6-1.9,0.2-7.9,4.6c-4,3-7.4,5.3-7.7,5.3c-0.3,0-2.5-3.4-5.1-7.7c-2.5-4.2-4.9-7.7-5.3-7.7C178.1,5.3,176.9,6.6,176,8z"/><path fill="#000000" d="M113.5,73.8C60,80.6,18.4,121.8,10.8,175.4c-1.2,8.4-1.3,8.2,2.3,5.1c8.7-7.5,19.2-12.3,30.2-13.9c6-0.9,17.1-0.4,22.3,1c8.5,2.2,15.5,5.6,21.6,10.2l2.7,2.1l2.4-1.9c6.1-4.7,13.8-8.3,22.3-10.4c6.7-1.7,20.1-1.7,26.8,0c8.5,2.1,16.1,5.7,22.3,10.4l2.4,1.9l2.7-2.1c7-5.3,16.6-9.4,25.5-11c6.7-1.2,17.9-0.7,24.2,0.8c8.9,2.4,16.9,6.5,23.7,12.1c4.4,3.8,4.3,4,3-5.2c-5-34.5-24.3-64.2-54-83.5c-5.8-3.8-17.9-9.6-24.3-11.8c-6-2-13.9-4-20.4-5.1C139.6,73.1,121.1,72.9,113.5,73.8z"/><path fill="#000000" d="M121,175l-1.5,0.2v25.9c0,24.7-0.1,26-1.1,27.9c-2.6,5.1-9.4,6.1-13.5,2c-1.8-1.8-2-2.4-2.6-6.9c-0.6-4.7-5.9-8.4-10.3-7.1c-4.5,1.3-6.4,4-6.4,9.1c0,6.6,2.8,12.7,8.2,17.8c13.9,13.2,37,6.4,41.9-12.4c0.6-2.5,0.8-7.7,0.8-29.6v-26.5l-2-0.4C132.3,174.6,123.4,174.6,121,175z"/></g></g></g>
</svg>