<svg xmlns="http://www.w3.org/2000/svg" version="1.1" xmlns:xlink="http://www.w3.org/1999/xlink" xmlns:svgjs="http://svgjs.dev/svgjs" viewBox="0 0 2400 800" opacity="1"><g fill="#51edacff" transform="matrix(1,0,0,1,8.7225341796875,212.15195846557617)"><path d="M-10,10C42.08333333333333,16.25,137.91666666666666,44.583333333333336,240,40C342.08333333333337,35.416666666666664,380,-8.25,480,-12C580,-15.75,620,27,720,22C820,17,860,-46.20833333333333,960,-36C1060,-25.791666666666668,1100,68.08333333333333,1200,71C1300,73.91666666666667,1340,-28.041666666666664,1440,-22C1540,-15.958333333333334,1580,106.25,1680,100C1780,93.75,1820,-44.916666666666664,1920,-52C2020,-59.083333333333336,2060,59.958333333333336,2160,66C2260,72.04166666666667,2297.9166666666665,-92.58333333333333,2400,-23C2502.0833333333335,46.58333333333333,3254.1666666666665,207.70833333333331,2650,400C2045.8333333333335,592.2916666666667,156.25,795.8333333333334,-500,900" transform="matrix(1,0,0,1,0,82)" opacity="0.05"></path><path d="M-10,10C42.08333333333333,16.25,137.91666666666666,44.583333333333336,240,40C342.08333333333337,35.416666666666664,380,-8.25,480,-12C580,-15.75,620,27,720,22C820,17,860,-46.20833333333333,960,-36C1060,-25.791666666666668,1100,68.08333333333333,1200,71C1300,73.91666666666667,1340,-28.041666666666664,1440,-22C1540,-15.958333333333334,1580,106.25,1680,100C1780,93.75,1820,-44.916666666666664,1920,-52C2020,-59.083333333333336,2060,59.958333333333336,2160,66C2260,72.04166666666667,2297.9166666666665,-92.58333333333333,2400,-23C2502.0833333333335,46.58333333333333,3254.1666666666665,207.70833333333331,2650,400C2045.8333333333335,592.2916666666667,156.25,795.8333333333334,-500,900" transform="matrix(1,0,0,1,0,164)" opacity="0.53"></path><path d="M-10,10C42.08333333333333,16.25,137.91666666666666,44.583333333333336,240,40C342.08333333333337,35.416666666666664,380,-8.25,480,-12C580,-15.75,620,27,720,22C820,17,860,-46.20833333333333,960,-36C1060,-25.791666666666668,1100,68.08333333333333,1200,71C1300,73.91666666666667,1340,-28.041666666666664,1440,-22C1540,-15.958333333333334,1580,106.25,1680,100C1780,93.75,1820,-44.916666666666664,1920,-52C2020,-59.083333333333336,2060,59.958333333333336,2160,66C2260,72.04166666666667,2297.9166666666665,-92.58333333333333,2400,-23C2502.0833333333335,46.58333333333333,3254.1666666666665,207.70833333333331,2650,400C2045.8333333333335,592.2916666666667,156.25,795.8333333333334,-500,900" transform="matrix(1,0,0,1,0,246)" opacity="1.00"></path></g></svg>